PathFileType	4	(X/Y/Z)	Patient4_TMGait_0pt2_02_left_25.trc.trc
DataRate	CameraRate	NumFrames	NumMarkers	Units	OrigDataRate	OrigDataStartFrame	OrigNumFrames
45.751633986928	45.751633986928	5	33	mm	45.751633986928	36	       141
Frame#	Time	R.Midfoot.Superior			Sacral			L.Shoulder			Chest			R.Shoulder			Neck			R.ASIS			L.ASIS			R.Thigh.Superior			R.Thigh.Lateral			R.Thigh.Inferior			R.Patella			L.Thigh.Superior			L.Thigh.Lateral			L.Thigh.Inferior			L.Patella			L.Shank.Superior			L.Shank.Lateral			L.Shank.Inferior			R.Shank.Superior			R.Shank.Lateral			R.Shank.Inferior			R.Heel			R.Midfoot.Lateral			R.Toe			L.Heel			L.Midfoot.Lateral			L.Midfoot.Superior			L.Toe			L.Elbow			L.Wrist			R.Elbow			R.Wrist			
		X1	Y1	Z1	X2	Y2	Z2	X3	Y3	Z3	X4	Y4	Z4	X5	Y5	Z5	X6	Y6	Z6	X7	Y7	Z7	X8	Y8	Z8	X9	Y9	Z9	X10	Y10	Z10	X11	Y11	Z11	X12	Y12	Z12	X13	Y13	Z13	X14	Y14	Z14	X15	Y15	Z15	X16	Y16	Z16	X17	Y17	Z17	X18	Y18	Z18	X19	Y19	Z19	X20	Y20	Z20	X21	Y21	Z21	X22	Y22	Z22	X23	Y23	Z23	X24	Y24	Z24	X25	Y25	Z25	X26	Y26	Z26	X27	Y27	Z27	X28	Y28	Z28	X29	Y29	Z29	X30	Y30	Z30	X31	Y31	Z31	X32	Y32	Z32	X33	Y33	Z33	

36	56.865000000000	1076.196578758849	99.769536659840	595.469885481207	1006.687748249717	1015.328573844137	521.654823841091	1173.774794123855	1419.737318297914	294.394746217150	1307.135023776284	1344.742678436327	424.847744461106	1283.538290710696	1433.088807647698	606.705459287376	1215.336520757594	1487.072501197664	444.195335296540	1246.212834908339	930.462760922234	596.152646744264	1187.116257576974	955.365371194679	328.882844215017	1249.446799116601	722.036339916029	562.817667213654	1165.861512886846	622.013788178647	638.482215453065	1217.114517749573	560.672194357499	547.378273506126	1204.521232061450	467.694313773376	558.215020002619	1257.148764449398	762.138506430462	357.163952514142	1186.230464840266	636.268030258246	292.588783262120	1285.739569450303	570.483909810183	347.972351240776	1295.505871660110	499.874707307550	350.800843368226	1271.614087473359	427.009304655999	339.552153871845	1186.421413138883	311.247424186639	284.461373423294	1247.223109402295	197.819923541832	344.068194160966	1151.497528035764	388.452897888753	571.943496749834	1065.763467281085	307.569373365814	649.220710339485	1070.466832267953	205.515633761869	584.863050792714	898.291678149291	65.914283724150	577.510831892108	987.113204627549	48.082088515842	642.159845297663	1191.764761006935	38.119738409897	612.067049596883	1126.698420621281	39.517614145349	377.280459045844	1200.550206766209	36.887343885818	296.900714707390	1283.747560115427	98.029198777877	323.878120523331	1411.689762776437	47.048256775549	294.784517297221	1034.096673009668	1098.563333577052	189.211318068504	1037.085208961295	836.676964210417	208.143857083978	1507.934689083223	1186.700373082505	678.783294866427	1631.188269297955	1326.335842708937	508.413206212366	
37	56.886857142857	1072.945643636333	100.410408514011	595.389539476036	1006.927344430878	1016.494311259938	515.002391849045	1176.669715653098	1420.765721536129	289.040277019605	1308.620604754105	1345.513447559111	420.913236050786	1283.382107138244	1434.243936799806	602.358620616971	1216.579228605505	1488.040764749083	439.341398076936	1245.848186553069	931.407244896858	591.322909521431	1188.571722275649	956.106159932554	323.695138200548	1248.600960825699	722.839453706023	559.016081069325	1164.410683957496	623.544832085919	635.013305817429	1216.016537914739	561.388376445773	544.647921907097	1202.949186317132	468.422227758371	555.984231296378	1257.336832642365	762.003929922865	352.820340304254	1185.707433619943	636.135078349423	288.941435011934	1284.628069401984	570.070904288463	345.081274612523	1294.042939920866	499.352211234398	348.415599264297	1269.690441146862	426.624622851608	337.564804891726	1184.016137602833	310.985986574768	283.119771185943	1243.884815491872	197.567865980136	343.545801762699	1149.515476476606	389.708100322790	570.215256883075	1063.010657420664	309.798101052295	647.659253309701	1067.699151667225	207.106668031504	584.191873980618	894.688670528634	68.848949859954	577.377001074063	983.288991206670	49.815776920299	642.055333642599	1187.608740768913	37.891007252651	612.036020206654	1122.414931181809	39.650856380159	377.375941596109	1196.232850291779	37.016142851972	297.011353563583	1279.627158613656	97.925179423660	323.939867002478	1407.474569255717	46.384002483196	294.740314404913	1042.041761281907	1099.204431178483	178.103127062659	1051.928990874469	837.239812480731	194.419909513834	1502.679575420513	1181.973509605057	677.527428233450	1635.109813416306	1316.990281419566	509.342868716566	
38	56.908714285714	1069.760785595086	101.042465228579	595.319639980601	1007.115284426548	1017.629045965951	508.161530861751	1179.633475650095	1421.808101535404	283.699123475543	1310.047487590343	1346.289110738365	417.114849706544	1283.007480782587	1435.392431568465	598.116774702231	1217.720241380500	1489.015278712139	434.539720783302	1245.422686303019	932.427460632562	586.485452134223	1190.133485022704	956.817934398816	318.475505932076	1247.742709398277	723.696592128631	555.240490949071	1162.876542896599	625.144697168175	631.514261196145	1214.897635847565	562.151582399606	541.945214692846	1201.375542245386	469.190233690702	553.785167889628	1257.684364462870	761.884173351902	348.568999113417	1185.440929218211	635.960744296263	285.360816133696	1283.749278563322	569.651729554027	342.329926640093	1292.820398691691	498.790700585020	346.148450323222	1267.959909738104	426.217398290492	335.658229049855	1181.742127730862	310.744324612261	281.879123769848	1240.660211868964	197.331540824686	343.103448255277	1147.534843548251	391.027099929129	568.520927848127	1060.207145118173	312.067538120419	646.078392167584	1064.956012186566	208.718611435044	583.527344463386	891.105595552293	71.743623255358	577.198594897172	979.481160767426	51.507068094328	641.923613696732	1183.471064871577	37.713704217050	611.997297329451	1118.152315426331	39.847432050615	377.529985574042	1191.929585613236	37.193171618805	297.185875296568	1275.547749715757	97.825427195832	324.048662464487	1403.264400624359	45.646501395184	294.704370077419	1050.463755768949	1099.769097857609	167.221413651006	1067.175167875967	837.947727411204	181.425557666434	1495.808499298179	1176.093198781770	676.622478647844	1639.262683800221	1304.314809236597	511.514102747215	
39	56.930571428571	1066.640211353546	101.637531227982	595.275010060871	1007.244612473062	1018.709488169849	501.115984282605	1182.641483760398	1422.862937293266	278.389644516328	1311.393980070026	1347.055133608348	413.443850186887	1282.393640963451	1436.467192256877	593.989450280262	1218.738693261230	1489.975017453738	429.811457530595	1244.924140616695	933.513428893654	581.625555598284	1191.806090760735	957.473135813405	313.213011243370	1246.878560751085	724.576471479426	551.513788714701	1161.255761383094	626.779033647507	627.993840428356	1213.778452080657	562.927393286894	539.293913245017	1199.842921950154	469.949617529444	551.662309867488	1258.240389734620	761.806291793387	344.434938599161	1185.542714893694	635.744530641095	281.848981531468	1283.227818140410	569.250737710613	339.716966809925	1291.978436140005	498.199496543887	343.992888797253	1266.540176075476	425.778115500826	333.832240860963	1179.689293783186	310.540814117089	280.727769586663	1237.592400690392	197.117918776105	342.738669079201	1145.577556820421	392.360191073945	566.881865675344	1057.359605818293	314.350750003525	644.493291090134	1062.241732918604	210.320945965977	582.893444400401	887.537251713708	74.561306034814	576.996413554577	975.687170245369	53.115233368552	641.773398906322	1179.355326991750	37.592436651373	611.951443300450	1113.922898505636	40.130486745881	377.734762893195	1187.653399286563	37.435040552238	297.414192364862	1271.522268213800	97.743656140594	324.197142395924	1399.067353824494	44.857421494365	294.671533637579	1059.332562724801	1100.232326698907	156.642806397626	1082.798246628558	838.755962017053	169.205917838922	1487.249453144947	1169.104833243362	675.910870605306	1643.312972895507	1287.781888376486	514.936358921644	
40	56.952428571429	1063.589176368166	102.168377187876	595.272257055786	1007.304229780970	1019.698505082482	493.852187405814	1185.673213463063	1423.913306584160	273.128789245006	1312.637317298689	1347.782481024098	409.892593445254	1281.512841773888	1437.390542953958	589.986762302933	1219.616034301243	1490.885055286646	425.173042621149	1244.326829618663	934.638010340877	576.732913123223	1193.584706793833	958.034419469817	307.901680591805	1246.036746513779	725.443079386238	547.852070344352	1159.597026401759	628.392531774920	624.458970352208	1212.742911124341	563.671714888446	536.711897218864	1198.467931858579	470.631860292702	549.659285485022	1259.036402529812	761.778373528058	340.428784982885	1186.092497493070	635.472971517753	278.405532717647	1283.158661599720	568.877997625225	337.235442007416	1291.627944672988	497.579249494076	341.940117456826	1265.521374836077	425.286874820464	332.088090671812	1177.926712692612	310.381868756619	279.650726622008	1234.707101971962	196.925982921169	342.445639796345	1143.727771977832	393.640845598424	565.317745477377	1054.530389278725	316.622840890448	642.919884257987	1059.593563467416	211.886145852868	582.318071533110	883.993068284754	77.305669192873	576.803919619880	971.911832216420	54.623105481305	641.621342548082	1175.261735649467	37.525860177323	611.898931356598	1109.732627098752	40.511182959478	377.979826137420	1183.411111761212	37.748815768629	297.682566461888	1267.553964508442	97.690180642229	324.375025984354	1394.886123031052	44.044704420159	294.636762635533	1068.603175719250	1100.573520967718	146.423499581743	1098.796615570431	839.631654890576	157.774012262006	1477.004350118809	1161.118583740147	675.215926332199	1646.796855040128	1266.981002139004	519.606999602325	
